<mxfile host="app.diagrams.net" modified="2023-08-04T10:55:23.888Z" agent="Mozilla/5.0 (Windows NT 10.0; Win64; x64) AppleWebKit/537.36 (KHTML, like Gecko) Chrome/115.0.0.0 Safari/537.36" etag="Tw9_1WoGCBoq-xKd4rD_" version="21.6.6" type="google">
  <diagram name="Page-1" id="2PJHruCXi9V4ohhMQPAO">
    <mxGraphModel grid="1" page="1" gridSize="10" guides="1" tooltips="1" connect="1" arrows="1" fold="1" pageScale="1" pageWidth="850" pageHeight="1100" math="0" shadow="0">
      <root>
        <mxCell id="0" />
        <mxCell id="1" parent="0" />
        <mxCell id="FtT5Jhbw3HZ-v1QbM0ez-37" value="&lt;blockquote style=&quot;margin: 0 0 0 40px; border: none; padding: 0px;&quot;&gt;Video processing pipeline (Logic tier)&lt;/blockquote&gt;" style="dashed=1;verticalAlign=top;fontStyle=1;whiteSpace=wrap;html=1;fillColor=none;strokeColor=#FF3333;fontColor=#FF3333;fontFamily=calibri;fontSize=18;align=left;strokeWidth=2;" vertex="1" parent="1">
          <mxGeometry x="1720" y="677" width="760" height="223" as="geometry" />
        </mxCell>
        <mxCell id="FtT5Jhbw3HZ-v1QbM0ez-42" value="&lt;blockquote style=&quot;margin: 0 0 0 40px; border: none; padding: 0px;&quot;&gt;Lambda@Edge authorization (Logic tier)&lt;/blockquote&gt;" style="fillColor=none;strokeColor=#FF3333;dashed=1;verticalAlign=top;fontStyle=1;fontColor=#FF3333;whiteSpace=wrap;html=1;fontFamily=calibri;align=left;fontSize=18;strokeWidth=2;" vertex="1" parent="1">
          <mxGeometry x="520" y="-80" width="1160" height="320" as="geometry" />
        </mxCell>
        <mxCell id="FtT5Jhbw3HZ-v1QbM0ez-1" value="&lt;blockquote style=&quot;margin: 0 0 0 40px; border: none; padding: 0px;&quot;&gt;Photo processing pipeline (Logic tier)&lt;/blockquote&gt;" style="dashed=1;verticalAlign=top;fontStyle=1;whiteSpace=wrap;html=1;fillColor=none;strokeColor=#FF3333;fontColor=#FF3333;fontFamily=calibri;fontSize=18;align=left;strokeWidth=2;" vertex="1" parent="1">
          <mxGeometry x="1720" y="80" width="760" height="440" as="geometry" />
        </mxCell>
        <mxCell id="X2zy52RoQCxRByroR_HH-43" value="&lt;blockquote style=&quot;margin: 0 0 0 40px; border: none; padding: 0px;&quot;&gt;REST API back-end (Logic tier)&lt;/blockquote&gt;" style="fillColor=none;strokeColor=#FF3333;dashed=1;verticalAlign=top;fontStyle=1;fontColor=#FF3333;whiteSpace=wrap;html=1;fontFamily=calibri;fontSize=18;align=left;strokeWidth=2;" vertex="1" parent="1">
          <mxGeometry x="520" y="320" width="880" height="720" as="geometry" />
        </mxCell>
        <mxCell id="X2zy52RoQCxRByroR_HH-46" value="Presentation tier" style="fillColor=none;strokeColor=#009900;dashed=1;verticalAlign=top;fontStyle=1;fontColor=#009900;whiteSpace=wrap;html=1;fontFamily=calibri;fontSize=18;strokeWidth=2;" vertex="1" parent="1">
          <mxGeometry x="160" y="-80" width="320" height="1120" as="geometry" />
        </mxCell>
        <mxCell id="X2zy52RoQCxRByroR_HH-45" value="Data tier" style="fillColor=none;strokeColor=#3333FF;dashed=1;verticalAlign=top;fontStyle=1;fontColor=#3333FF;whiteSpace=wrap;html=1;fontFamily=calibri;fontSize=18;strokeWidth=2;" vertex="1" parent="1">
          <mxGeometry x="1440" y="320" width="240" height="720" as="geometry" />
        </mxCell>
        <mxCell id="X2zy52RoQCxRByroR_HH-41" value="AWS Cloud" style="points=[[0,0],[0.25,0],[0.5,0],[0.75,0],[1,0],[1,0.25],[1,0.5],[1,0.75],[1,1],[0.75,1],[0.5,1],[0.25,1],[0,1],[0,0.75],[0,0.5],[0,0.25]];outlineConnect=0;gradientColor=none;html=1;whiteSpace=wrap;fontSize=18;fontStyle=1;container=0;pointerEvents=0;collapsible=0;recursiveResize=0;shape=mxgraph.aws4.group;grIcon=mxgraph.aws4.group_aws_cloud;strokeColor=#232F3E;fillColor=none;verticalAlign=top;align=left;spacingLeft=30;fontColor=#232F3E;dashed=0;fontFamily=calibri;" vertex="1" parent="1">
          <mxGeometry x="120" y="-120" width="2400" height="1200" as="geometry" />
        </mxCell>
        <mxCell id="Bb26P0zjuH-woblzr61o-3" value="S3 (Photos and Videos)" style="sketch=0;points=[[0,0,0,0,0],[0,0.25,0,0,0],[0,0.5,0,0,0],[0,0.62,0,0,0],[0,0.75,0,0,0],[0,1,0,0,0],[0.25,0,0,0,0],[0.25,1,0,0,0],[0.5,0,0,0,0],[0.5,1,0,0,0],[0.75,0,0,0,0],[0.75,1,0,0,0],[1,0,0,0,0],[1,0.25,0,0,0],[1,0.5,0,0,0],[1,0.75,0,0,0],[1,1,0,0,0]];outlineConnect=0;fontColor=#232F3E;gradientColor=#60A337;gradientDirection=north;fillColor=#277116;strokeColor=#ffffff;dashed=0;verticalLabelPosition=bottom;verticalAlign=top;align=center;html=1;fontSize=18;fontStyle=1;aspect=fixed;shape=mxgraph.aws4.resourceIcon;resIcon=mxgraph.aws4.s3;fontFamily=calibri;" vertex="1" parent="1">
          <mxGeometry x="1520" y="556" width="80" height="80" as="geometry" />
        </mxCell>
        <mxCell id="Bb26P0zjuH-woblzr61o-4" value="S3 (HTML, CSS, JS)" style="sketch=0;points=[[0,0,0],[0.25,0,0],[0.5,0,0],[0.75,0,0],[1,0,0],[0,1,0],[0.25,1,0],[0.5,1,0],[0.75,1,0],[1,1,0],[0,0.25,0],[0,0.5,0],[0,0.75,0],[1,0.25,0],[1,0.5,0],[1,0.75,0]];outlineConnect=0;fontColor=#232F3E;gradientColor=#60A337;gradientDirection=north;fillColor=#277116;strokeColor=#ffffff;dashed=0;verticalLabelPosition=bottom;verticalAlign=top;align=center;html=1;fontSize=18;fontStyle=1;aspect=fixed;shape=mxgraph.aws4.resourceIcon;resIcon=mxgraph.aws4.s3;fontFamily=calibri;" vertex="1" parent="1">
          <mxGeometry x="360" y="-40" width="80" height="80" as="geometry" />
        </mxCell>
        <mxCell id="Bb26P0zjuH-woblzr61o-8" value="DynamoDB" style="sketch=0;points=[[0,0,0],[0.25,0,0],[0.5,0,0],[0.75,0,0],[1,0,0],[0,1,0],[0.25,1,0],[0.5,1,0],[0.75,1,0],[1,1,0],[0,0.25,0],[0,0.5,0],[0,0.75,0],[1,0.25,0],[1,0.5,0],[1,0.75,0]];outlineConnect=0;fontColor=#232F3E;gradientColor=#4D72F3;gradientDirection=north;fillColor=#3334B9;strokeColor=#ffffff;dashed=0;verticalLabelPosition=bottom;verticalAlign=top;align=center;html=1;fontSize=18;fontStyle=1;aspect=fixed;shape=mxgraph.aws4.resourceIcon;resIcon=mxgraph.aws4.dynamodb;fontFamily=calibri;" vertex="1" parent="1">
          <mxGeometry x="1520" y="796" width="80" height="80" as="geometry" />
        </mxCell>
        <mxCell id="Bb26P0zjuH-woblzr61o-9" value="Lambda (postPhoto)" style="sketch=0;points=[[0,0,0],[0.25,0,0],[0.5,0,0],[0.75,0,0],[1,0,0],[0,1,0],[0.25,1,0],[0.5,1,0],[0.75,1,0],[1,1,0],[0,0.25,0],[0,0.5,0],[0,0.75,0],[1,0.25,0],[1,0.5,0],[1,0.75,0]];outlineConnect=0;fontColor=#232F3E;gradientColor=#F78E04;gradientDirection=north;fillColor=#D05C17;strokeColor=#ffffff;dashed=0;verticalLabelPosition=bottom;verticalAlign=top;align=center;html=1;fontSize=18;fontStyle=1;aspect=fixed;shape=mxgraph.aws4.resourceIcon;resIcon=mxgraph.aws4.lambda;fontFamily=calibri;" vertex="1" parent="1">
          <mxGeometry x="840" y="556" width="80" height="80" as="geometry" />
        </mxCell>
        <mxCell id="Bb26P0zjuH-woblzr61o-10" value="Lambda (getVideos)" style="sketch=0;points=[[0,0,0],[0.25,0,0],[0.5,0,0],[0.75,0,0],[1,0,0],[0,1,0],[0.25,1,0],[0.5,1,0],[0.75,1,0],[1,1,0],[0,0.25,0],[0,0.5,0],[0,0.75,0],[1,0.25,0],[1,0.5,0],[1,0.75,0]];outlineConnect=0;fontColor=#232F3E;gradientColor=#F78E04;gradientDirection=north;fillColor=#D05C17;strokeColor=#ffffff;dashed=0;verticalLabelPosition=bottom;verticalAlign=top;align=center;html=1;fontSize=18;fontStyle=1;aspect=fixed;shape=mxgraph.aws4.resourceIcon;resIcon=mxgraph.aws4.lambda;fontFamily=calibri;" vertex="1" parent="1">
          <mxGeometry x="840" y="916" width="80" height="80" as="geometry" />
        </mxCell>
        <mxCell id="Bb26P0zjuH-woblzr61o-11" value="Lambda (postVideo)" style="sketch=0;points=[[0,0,0],[0.25,0,0],[0.5,0,0],[0.75,0,0],[1,0,0],[0,1,0],[0.25,1,0],[0.5,1,0],[0.75,1,0],[1,1,0],[0,0.25,0],[0,0.5,0],[0,0.75,0],[1,0.25,0],[1,0.5,0],[1,0.75,0]];outlineConnect=0;fontColor=#232F3E;gradientColor=#F78E04;gradientDirection=north;fillColor=#D05C17;strokeColor=#ffffff;dashed=0;verticalLabelPosition=bottom;verticalAlign=top;align=center;html=1;fontSize=18;fontStyle=1;aspect=fixed;shape=mxgraph.aws4.resourceIcon;resIcon=mxgraph.aws4.lambda;fontFamily=calibri;" vertex="1" parent="1">
          <mxGeometry x="840" y="676" width="80" height="80" as="geometry" />
        </mxCell>
        <mxCell id="Bb26P0zjuH-woblzr61o-12" value="Lambda (getPhotos)" style="sketch=0;points=[[0,0,0],[0.25,0,0],[0.5,0,0],[0.75,0,0],[1,0,0],[0,1,0],[0.25,1,0],[0.5,1,0],[0.75,1,0],[1,1,0],[0,0.25,0],[0,0.5,0],[0,0.75,0],[1,0.25,0],[1,0.5,0],[1,0.75,0]];outlineConnect=0;fontColor=#232F3E;gradientColor=#F78E04;gradientDirection=north;fillColor=#D05C17;strokeColor=#ffffff;dashed=0;verticalLabelPosition=bottom;verticalAlign=top;align=center;html=1;fontSize=18;fontStyle=1;aspect=fixed;shape=mxgraph.aws4.resourceIcon;resIcon=mxgraph.aws4.lambda;fontFamily=calibri;" vertex="1" parent="1">
          <mxGeometry x="840" y="796" width="80" height="80" as="geometry" />
        </mxCell>
        <mxCell id="Bb26P0zjuH-woblzr61o-15" value="Route 53" style="sketch=0;points=[[0,0,0],[0.25,0,0],[0.5,0,0],[0.75,0,0],[1,0,0],[0,1,0],[0.25,1,0],[0.5,1,0],[0.75,1,0],[1,1,0],[0,0.25,0],[0,0.5,0],[0,0.75,0],[1,0.25,0],[1,0.5,0],[1,0.75,0]];outlineConnect=0;fontColor=#232F3E;gradientColor=#945DF2;gradientDirection=north;fillColor=#5A30B5;strokeColor=#ffffff;dashed=0;verticalLabelPosition=bottom;verticalAlign=top;align=center;html=1;fontSize=18;fontStyle=1;aspect=fixed;shape=mxgraph.aws4.resourceIcon;resIcon=mxgraph.aws4.route_53;fontFamily=calibri;" vertex="1" parent="1">
          <mxGeometry x="200" y="556" width="80" height="80" as="geometry" />
        </mxCell>
        <mxCell id="ceJzJxvxhzB4gHTuhhe1-2" value="" style="edgeStyle=orthogonalEdgeStyle;html=1;endArrow=block;elbow=vertical;startArrow=block;startFill=1;endFill=1;strokeColor=#545B64;rounded=0;fontFamily=calibri;fontStyle=1;fontColor=#232F3E;entryX=0;entryY=0.5;entryDx=0;entryDy=0;entryPerimeter=0;fontSize=18;exitX=0.501;exitY=1.003;exitDx=0;exitDy=0;exitPerimeter=0;" edge="1" parent="1" source="X2zy52RoQCxRByroR_HH-19" target="Bb26P0zjuH-woblzr61o-6">
          <mxGeometry width="100" relative="1" as="geometry">
            <mxPoint x="100" y="636" as="sourcePoint" />
            <mxPoint x="200" y="756" as="targetPoint" />
            <Array as="points">
              <mxPoint x="-40" y="756" />
            </Array>
          </mxGeometry>
        </mxCell>
        <mxCell id="ceJzJxvxhzB4gHTuhhe1-3" value="" style="edgeStyle=orthogonalEdgeStyle;html=1;endArrow=block;elbow=vertical;startArrow=block;startFill=1;endFill=1;strokeColor=#545B64;rounded=0;entryX=0;entryY=0.5;entryDx=0;entryDy=0;entryPerimeter=0;exitX=0.989;exitY=0.501;exitDx=0;exitDy=0;exitPerimeter=0;fontFamily=calibri;fontStyle=1;fontColor=#232F3E;fontSize=18;" edge="1" parent="1" source="X2zy52RoQCxRByroR_HH-19" target="Bb26P0zjuH-woblzr61o-15">
          <mxGeometry width="100" relative="1" as="geometry">
            <mxPoint x="120" y="596" as="sourcePoint" />
            <mxPoint x="200" y="596" as="targetPoint" />
            <Array as="points" />
          </mxGeometry>
        </mxCell>
        <mxCell id="ceJzJxvxhzB4gHTuhhe1-8" value="" style="edgeStyle=orthogonalEdgeStyle;html=1;endArrow=block;elbow=vertical;startArrow=block;startFill=1;endFill=1;strokeColor=#545B64;rounded=0;entryX=0;entryY=0.5;entryDx=0;entryDy=0;entryPerimeter=0;exitX=0.5;exitY=0;exitDx=0;exitDy=0;exitPerimeter=0;fontFamily=calibri;fontStyle=1;fontColor=#232F3E;fontSize=18;" edge="1" parent="1" source="Bb26P0zjuH-woblzr61o-15" target="Bb26P0zjuH-woblzr61o-14">
          <mxGeometry width="100" relative="1" as="geometry">
            <mxPoint x="278" y="400.86" as="sourcePoint" />
            <mxPoint x="360" y="400" as="targetPoint" />
          </mxGeometry>
        </mxCell>
        <mxCell id="ceJzJxvxhzB4gHTuhhe1-9" value="" style="edgeStyle=orthogonalEdgeStyle;html=1;endArrow=block;elbow=vertical;startArrow=block;startFill=1;endFill=1;strokeColor=#545B64;rounded=0;exitX=1;exitY=0.5;exitDx=0;exitDy=0;exitPerimeter=0;entryX=0;entryY=0.5;entryDx=0;entryDy=0;entryPerimeter=0;fontFamily=calibri;fontStyle=1;fontColor=#232F3E;fontSize=18;" edge="1" parent="1" source="Bb26P0zjuH-woblzr61o-15" target="v3MV4ElDQ2zE_9FzJJvx-1">
          <mxGeometry width="100" relative="1" as="geometry">
            <mxPoint x="460" y="596.8299999999999" as="sourcePoint" />
            <mxPoint x="560" y="594" as="targetPoint" />
          </mxGeometry>
        </mxCell>
        <mxCell id="ceJzJxvxhzB4gHTuhhe1-11" value="" style="html=1;endArrow=block;elbow=vertical;startArrow=block;startFill=1;endFill=1;strokeColor=#545B64;rounded=0;exitX=1;exitY=0.5;exitDx=0;exitDy=0;exitPerimeter=0;entryX=0;entryY=0.5;entryDx=0;entryDy=0;entryPerimeter=0;fontFamily=calibri;fontStyle=1;fontColor=#232F3E;fontSize=18;" edge="1" parent="1" source="v3MV4ElDQ2zE_9FzJJvx-1" target="Bb26P0zjuH-woblzr61o-9">
          <mxGeometry width="100" relative="1" as="geometry">
            <mxPoint x="638" y="594" as="sourcePoint" />
            <mxPoint x="760" y="594.86" as="targetPoint" />
          </mxGeometry>
        </mxCell>
        <mxCell id="ceJzJxvxhzB4gHTuhhe1-13" value="" style="edgeStyle=orthogonalEdgeStyle;html=1;endArrow=block;elbow=vertical;startArrow=block;startFill=1;endFill=1;strokeColor=#545B64;rounded=0;entryX=0;entryY=0.5;entryDx=0;entryDy=0;entryPerimeter=0;exitX=0.75;exitY=1;exitDx=0;exitDy=0;exitPerimeter=0;fontFamily=calibri;fontStyle=1;fontColor=#232F3E;fontSize=18;" edge="1" parent="1" source="v3MV4ElDQ2zE_9FzJJvx-1" target="Bb26P0zjuH-woblzr61o-11">
          <mxGeometry width="100" relative="1" as="geometry">
            <mxPoint x="618.5" y="633" as="sourcePoint" />
            <mxPoint x="780" y="746" as="targetPoint" />
            <Array as="points">
              <mxPoint x="620" y="716" />
            </Array>
          </mxGeometry>
        </mxCell>
        <mxCell id="ceJzJxvxhzB4gHTuhhe1-14" value="Amazon Cognito&lt;br style=&quot;font-size: 18px;&quot;&gt;User Pool Authorizer" style="sketch=0;points=[[0,0,0],[0.25,0,0],[0.5,0,0],[0.75,0,0],[1,0,0],[0,1,0],[0.25,1,0],[0.5,1,0],[0.75,1,0],[1,1,0],[0,0.25,0],[0,0.5,0],[0,0.75,0],[1,0.25,0],[1,0.5,0],[1,0.75,0]];outlineConnect=0;fontColor=#232F3E;gradientColor=#F54749;gradientDirection=north;fillColor=#C7131F;strokeColor=#ffffff;dashed=0;verticalLabelPosition=bottom;verticalAlign=top;align=center;html=1;fontSize=18;fontStyle=1;aspect=fixed;shape=mxgraph.aws4.resourceIcon;resIcon=mxgraph.aws4.cognito;fontFamily=calibri;" vertex="1" parent="1">
          <mxGeometry x="560" y="360" width="80" height="80" as="geometry" />
        </mxCell>
        <mxCell id="v3MV4ElDQ2zE_9FzJJvx-1" value="API Gateway" style="sketch=0;points=[[0,0,0],[0.25,0,0],[0.5,0,0],[0.75,0,0],[1,0,0],[0,1,0],[0.25,1,0],[0.5,1,0],[0.75,1,0],[1,1,0],[0,0.25,0],[0,0.5,0],[0,0.75,0],[1,0.25,0],[1,0.5,0],[1,0.75,0]];outlineConnect=0;fontColor=#232F3E;gradientColor=#945DF2;gradientDirection=north;fillColor=#5A30B5;strokeColor=#ffffff;dashed=0;verticalLabelPosition=bottom;verticalAlign=top;align=center;html=1;fontSize=18;fontStyle=1;aspect=fixed;shape=mxgraph.aws4.resourceIcon;resIcon=mxgraph.aws4.api_gateway;fontFamily=calibri;" vertex="1" parent="1">
          <mxGeometry x="560" y="556" width="80" height="80" as="geometry" />
        </mxCell>
        <mxCell id="X2zy52RoQCxRByroR_HH-3" value="POST /photos" style="text;html=1;strokeColor=none;fillColor=none;align=center;verticalAlign=middle;whiteSpace=wrap;rounded=0;fontFamily=calibri;fontStyle=1;fontColor=#232F3E;fontSize=18;" vertex="1" parent="1">
          <mxGeometry x="685" y="566" width="110" height="30" as="geometry" />
        </mxCell>
        <mxCell id="X2zy52RoQCxRByroR_HH-6" value="" style="edgeStyle=orthogonalEdgeStyle;html=1;endArrow=block;elbow=vertical;startArrow=block;startFill=1;endFill=1;strokeColor=#545B64;rounded=0;entryX=0;entryY=0.5;entryDx=0;entryDy=0;entryPerimeter=0;exitX=1;exitY=0.5;exitDx=0;exitDy=0;exitPerimeter=0;fontFamily=calibri;fontStyle=1;fontColor=#232F3E;fontSize=18;" edge="1" parent="1" source="Bb26P0zjuH-woblzr61o-9" target="Bb26P0zjuH-woblzr61o-3">
          <mxGeometry width="100" relative="1" as="geometry">
            <mxPoint x="940" y="686" as="sourcePoint" />
            <mxPoint x="1040" y="686" as="targetPoint" />
          </mxGeometry>
        </mxCell>
        <mxCell id="X2zy52RoQCxRByroR_HH-7" value="POST /videos" style="text;html=1;strokeColor=none;fillColor=none;align=center;verticalAlign=middle;whiteSpace=wrap;rounded=0;fontFamily=calibri;fontStyle=1;fontColor=#232F3E;fontSize=18;" vertex="1" parent="1">
          <mxGeometry x="685" y="686" width="110" height="30" as="geometry" />
        </mxCell>
        <mxCell id="X2zy52RoQCxRByroR_HH-8" value="GET /photos" style="text;html=1;strokeColor=none;fillColor=none;align=center;verticalAlign=middle;whiteSpace=wrap;rounded=0;fontFamily=calibri;fontStyle=1;fontColor=#232F3E;fontSize=18;" vertex="1" parent="1">
          <mxGeometry x="677.5" y="806" width="105" height="30" as="geometry" />
        </mxCell>
        <mxCell id="X2zy52RoQCxRByroR_HH-9" value="GET /videos" style="text;html=1;strokeColor=none;fillColor=none;align=center;verticalAlign=middle;whiteSpace=wrap;rounded=0;fontFamily=calibri;fontStyle=1;fontColor=#232F3E;fontSize=18;" vertex="1" parent="1">
          <mxGeometry x="677.5" y="926" width="95" height="30" as="geometry" />
        </mxCell>
        <mxCell id="X2zy52RoQCxRByroR_HH-11" value="" style="edgeStyle=orthogonalEdgeStyle;html=1;endArrow=block;elbow=vertical;startArrow=none;endFill=1;strokeColor=#545B64;rounded=0;entryX=0;entryY=0.25;entryDx=0;entryDy=0;entryPerimeter=0;exitX=1;exitY=0.75;exitDx=0;exitDy=0;exitPerimeter=0;fontFamily=calibri;fontStyle=1;fontColor=#232F3E;fontSize=18;" edge="1" parent="1" source="Bb26P0zjuH-woblzr61o-9" target="Bb26P0zjuH-woblzr61o-8">
          <mxGeometry width="100" relative="1" as="geometry">
            <mxPoint x="930" y="616" as="sourcePoint" />
            <mxPoint x="1020" y="616" as="targetPoint" />
            <Array as="points">
              <mxPoint x="980" y="616" />
              <mxPoint x="980" y="816" />
            </Array>
          </mxGeometry>
        </mxCell>
        <mxCell id="X2zy52RoQCxRByroR_HH-19" value="Customers" style="sketch=0;outlineConnect=0;fontColor=#232F3E;gradientColor=none;fillColor=#232F3D;strokeColor=none;dashed=0;verticalLabelPosition=bottom;verticalAlign=top;align=center;html=1;fontSize=18;fontStyle=1;aspect=fixed;pointerEvents=1;shape=mxgraph.aws4.users;points=[[0.75,1,0,0,0]];fontFamily=calibri;" vertex="1" parent="1">
          <mxGeometry x="-80" y="556" width="80" height="80" as="geometry" />
        </mxCell>
        <mxCell id="X2zy52RoQCxRByroR_HH-20" value="" style="edgeStyle=orthogonalEdgeStyle;html=1;endArrow=block;elbow=vertical;startArrow=block;startFill=1;endFill=1;strokeColor=#545B64;rounded=0;exitX=0.5;exitY=1;exitDx=0;exitDy=0;exitPerimeter=0;entryX=0.5;entryY=0;entryDx=0;entryDy=0;entryPerimeter=0;fontFamily=calibri;fontStyle=1;fontColor=#232F3E;fontSize=18;" edge="1" parent="1" source="ceJzJxvxhzB4gHTuhhe1-14" target="v3MV4ElDQ2zE_9FzJJvx-1">
          <mxGeometry width="100" relative="1" as="geometry">
            <mxPoint x="520" y="516" as="sourcePoint" />
            <mxPoint x="620" y="516" as="targetPoint" />
          </mxGeometry>
        </mxCell>
        <mxCell id="X2zy52RoQCxRByroR_HH-21" value="" style="endArrow=none;html=1;rounded=0;strokeColor=#545B64;exitX=1;exitY=0.5;exitDx=0;exitDy=0;exitPerimeter=0;fontFamily=calibri;fontStyle=1;fontColor=#232F3E;fontSize=18;" edge="1" parent="1">
          <mxGeometry width="50" height="50" relative="1" as="geometry">
            <mxPoint x="920" y="736" as="sourcePoint" />
            <mxPoint x="980" y="736" as="targetPoint" />
          </mxGeometry>
        </mxCell>
        <mxCell id="X2zy52RoQCxRByroR_HH-22" value="" style="edgeStyle=orthogonalEdgeStyle;html=1;endArrow=block;elbow=vertical;startArrow=block;startFill=1;endFill=1;strokeColor=#545B64;rounded=0;exitX=1;exitY=0.5;exitDx=0;exitDy=0;exitPerimeter=0;entryX=0;entryY=0.75;entryDx=0;entryDy=0;entryPerimeter=0;fontFamily=calibri;fontStyle=1;fontColor=#232F3E;fontSize=18;" edge="1" parent="1" target="Bb26P0zjuH-woblzr61o-3">
          <mxGeometry width="100" relative="1" as="geometry">
            <mxPoint x="919.5" y="715.5" as="sourcePoint" />
            <mxPoint x="1439.5" y="615.5" as="targetPoint" />
            <Array as="points">
              <mxPoint x="1020" y="715" />
              <mxPoint x="1020" y="616" />
            </Array>
          </mxGeometry>
        </mxCell>
        <mxCell id="X2zy52RoQCxRByroR_HH-23" value="" style="edgeStyle=orthogonalEdgeStyle;html=1;endArrow=block;elbow=vertical;startArrow=block;startFill=1;endFill=1;strokeColor=#545B64;rounded=0;exitX=0.5;exitY=1;exitDx=0;exitDy=0;exitPerimeter=0;fontFamily=calibri;fontStyle=1;fontColor=#232F3E;fontSize=18;" edge="1" parent="1" source="v3MV4ElDQ2zE_9FzJJvx-1">
          <mxGeometry width="100" relative="1" as="geometry">
            <mxPoint x="740" y="835.58" as="sourcePoint" />
            <mxPoint x="840" y="835.58" as="targetPoint" />
            <Array as="points">
              <mxPoint x="600" y="836" />
              <mxPoint x="841" y="836" />
            </Array>
          </mxGeometry>
        </mxCell>
        <mxCell id="X2zy52RoQCxRByroR_HH-24" value="" style="edgeStyle=orthogonalEdgeStyle;html=1;endArrow=block;elbow=vertical;startArrow=block;startFill=1;endFill=1;strokeColor=#545B64;rounded=0;exitX=0.25;exitY=1;exitDx=0;exitDy=0;exitPerimeter=0;fontFamily=calibri;fontStyle=1;fontColor=#232F3E;fontSize=18;" edge="1" parent="1" source="v3MV4ElDQ2zE_9FzJJvx-1">
          <mxGeometry width="100" relative="1" as="geometry">
            <mxPoint x="740" y="955.58" as="sourcePoint" />
            <mxPoint x="840" y="955.58" as="targetPoint" />
            <Array as="points">
              <mxPoint x="580" y="956" />
              <mxPoint x="841" y="956" />
            </Array>
          </mxGeometry>
        </mxCell>
        <mxCell id="X2zy52RoQCxRByroR_HH-25" value="" style="edgeStyle=orthogonalEdgeStyle;html=1;endArrow=block;elbow=vertical;startArrow=block;startFill=1;endFill=1;strokeColor=#545B64;rounded=0;exitX=1;exitY=0.75;exitDx=0;exitDy=0;exitPerimeter=0;entryX=0;entryY=0.75;entryDx=0;entryDy=0;entryPerimeter=0;fontFamily=calibri;fontStyle=1;fontColor=#232F3E;fontSize=18;" edge="1" parent="1" source="Bb26P0zjuH-woblzr61o-12" target="Bb26P0zjuH-woblzr61o-8">
          <mxGeometry width="100" relative="1" as="geometry">
            <mxPoint x="1380" y="846" as="sourcePoint" />
            <mxPoint x="1480" y="846" as="targetPoint" />
            <Array as="points" />
          </mxGeometry>
        </mxCell>
        <mxCell id="X2zy52RoQCxRByroR_HH-26" value="" style="edgeStyle=orthogonalEdgeStyle;html=1;endArrow=block;elbow=vertical;startArrow=block;startFill=1;endFill=1;strokeColor=#545B64;rounded=0;entryX=0.5;entryY=1;entryDx=0;entryDy=0;entryPerimeter=0;fontFamily=calibri;fontStyle=1;fontColor=#232F3E;fontSize=18;" edge="1" parent="1" target="Bb26P0zjuH-woblzr61o-8">
          <mxGeometry width="100" relative="1" as="geometry">
            <mxPoint x="920" y="955.4300000000001" as="sourcePoint" />
            <mxPoint x="1020" y="955.4300000000001" as="targetPoint" />
          </mxGeometry>
        </mxCell>
        <mxCell id="X2zy52RoQCxRByroR_HH-29" value="" style="edgeStyle=orthogonalEdgeStyle;html=1;endArrow=block;elbow=vertical;startArrow=none;endFill=1;strokeColor=#545B64;rounded=0;entryX=0.25;entryY=0;entryDx=0;entryDy=0;entryPerimeter=0;exitX=0.489;exitY=0;exitDx=0;exitDy=0;exitPerimeter=0;fontFamily=calibri;fontStyle=1;fontColor=#232F3E;fontSize=18;" edge="1" parent="1" source="X2zy52RoQCxRByroR_HH-19" target="Bb26P0zjuH-woblzr61o-3">
          <mxGeometry width="100" relative="1" as="geometry">
            <mxPoint x="80" y="330" as="sourcePoint" />
            <mxPoint x="1100" y="350" as="targetPoint" />
            <Array as="points">
              <mxPoint x="-41" y="280" />
              <mxPoint x="1540" y="280" />
            </Array>
          </mxGeometry>
        </mxCell>
        <mxCell id="X2zy52RoQCxRByroR_HH-30" value="Authenticate" style="text;html=1;strokeColor=none;fillColor=none;align=center;verticalAlign=middle;whiteSpace=wrap;rounded=0;fontFamily=calibri;fontStyle=1;fontColor=#232F3E;fontSize=18;" vertex="1" parent="1">
          <mxGeometry x="30" y="726" width="60" height="30" as="geometry" />
        </mxCell>
        <mxCell id="X2zy52RoQCxRByroR_HH-32" value="Clients receive JWT token" style="text;html=1;strokeColor=none;fillColor=none;align=center;verticalAlign=middle;whiteSpace=wrap;rounded=0;fontFamily=calibri;fontStyle=1;fontSize=18;" vertex="1" parent="1">
          <mxGeometry y="771" width="120" height="30" as="geometry" />
        </mxCell>
        <mxCell id="X2zy52RoQCxRByroR_HH-36" value="Customers upload photos and videos directly to S3 with temporary URLs." style="text;html=1;strokeColor=none;fillColor=none;align=center;verticalAlign=middle;whiteSpace=wrap;rounded=0;fontFamily=calibri;fontStyle=1;fontSize=18;" vertex="1" parent="1">
          <mxGeometry x="-30" y="220" width="140" height="30" as="geometry" />
        </mxCell>
        <mxCell id="Bb26P0zjuH-woblzr61o-6" value="&lt;span style=&quot;font-size: 18px;&quot;&gt;&lt;font style=&quot;font-size: 18px;&quot;&gt;Amazon Cognito&lt;br style=&quot;font-size: 18px;&quot;&gt;Hosted UI&lt;/font&gt;&lt;/span&gt;" style="sketch=0;points=[[0,0,0],[0.25,0,0],[0.5,0,0],[0.75,0,0],[1,0,0],[0,1,0],[0.25,1,0],[0.5,1,0],[0.75,1,0],[1,1,0],[0,0.25,0],[0,0.5,0],[0,0.75,0],[1,0.25,0],[1,0.5,0],[1,0.75,0]];outlineConnect=0;fontColor=#232F3E;gradientColor=#F54749;gradientDirection=north;fillColor=#C7131F;strokeColor=#ffffff;dashed=0;verticalLabelPosition=bottom;verticalAlign=top;align=center;html=1;fontSize=18;fontStyle=1;aspect=fixed;shape=mxgraph.aws4.resourceIcon;resIcon=mxgraph.aws4.cognito;fontFamily=calibri;" vertex="1" parent="1">
          <mxGeometry x="200" y="716" width="80" height="80" as="geometry" />
        </mxCell>
        <mxCell id="X2zy52RoQCxRByroR_HH-47" value="Access via a custom domain name" style="text;html=1;strokeColor=none;fillColor=none;align=center;verticalAlign=middle;whiteSpace=wrap;rounded=0;fontFamily=calibri;fontStyle=1;fontSize=18;" vertex="1" parent="1">
          <mxGeometry x="10" y="536" width="110" height="30" as="geometry" />
        </mxCell>
        <mxCell id="X2zy52RoQCxRByroR_HH-48" value="Authorizes the API request." style="text;html=1;strokeColor=none;fillColor=none;align=center;verticalAlign=middle;whiteSpace=wrap;rounded=0;fontFamily=calibri;fontStyle=1;fontSize=18;" vertex="1" parent="1">
          <mxGeometry x="610" y="500" width="210" height="30" as="geometry" />
        </mxCell>
        <mxCell id="X2zy52RoQCxRByroR_HH-51" value="Gets the metadata of all videos uploaded by the user specified in the JWT token." style="text;html=1;strokeColor=none;fillColor=none;align=center;verticalAlign=middle;whiteSpace=wrap;rounded=0;fontFamily=calibri;fontStyle=1;fontSize=18;" vertex="1" parent="1">
          <mxGeometry x="1000" y="966" width="340" height="30" as="geometry" />
        </mxCell>
        <mxCell id="X2zy52RoQCxRByroR_HH-53" value="Gets the metadata of all photos uploaded by the user specified in the JWT token." style="text;html=1;strokeColor=none;fillColor=none;align=center;verticalAlign=middle;whiteSpace=wrap;rounded=0;fontFamily=calibri;fontStyle=1;fontSize=18;" vertex="1" parent="1">
          <mxGeometry x="1005" y="866" width="340" height="30" as="geometry" />
        </mxCell>
        <mxCell id="X2zy52RoQCxRByroR_HH-55" value="Saves the photo/video metadata along with the uploader username into DynamoDB." style="text;html=1;strokeColor=none;fillColor=none;align=center;verticalAlign=middle;whiteSpace=wrap;rounded=0;fontFamily=calibri;fontStyle=1;fontSize=18;" vertex="1" parent="1">
          <mxGeometry x="990" y="776" width="370" height="30" as="geometry" />
        </mxCell>
        <mxCell id="X2zy52RoQCxRByroR_HH-56" value="Returns a temporary URL to upload the photo to S3." style="text;html=1;strokeColor=none;fillColor=none;align=center;verticalAlign=middle;whiteSpace=wrap;rounded=0;fontFamily=calibri;fontStyle=1;fontSize=18;" vertex="1" parent="1">
          <mxGeometry x="660" y="620" width="160" height="30" as="geometry" />
        </mxCell>
        <mxCell id="X2zy52RoQCxRByroR_HH-57" value="Returns a temporary URL to upload the video to S3." style="text;html=1;strokeColor=none;fillColor=none;align=center;verticalAlign=middle;whiteSpace=wrap;rounded=0;fontFamily=calibri;fontStyle=1;fontSize=18;" vertex="1" parent="1">
          <mxGeometry x="650" y="741" width="160" height="30" as="geometry" />
        </mxCell>
        <mxCell id="X2zy52RoQCxRByroR_HH-58" value="Returns photo metadata." style="text;html=1;strokeColor=none;fillColor=none;align=center;verticalAlign=middle;whiteSpace=wrap;rounded=0;fontFamily=calibri;fontStyle=1;fontSize=18;" vertex="1" parent="1">
          <mxGeometry x="660" y="846" width="140" height="30" as="geometry" />
        </mxCell>
        <mxCell id="X2zy52RoQCxRByroR_HH-59" value="Returns video metadata." style="text;html=1;strokeColor=none;fillColor=none;align=center;verticalAlign=middle;whiteSpace=wrap;rounded=0;fontFamily=calibri;fontStyle=1;fontSize=18;" vertex="1" parent="1">
          <mxGeometry x="660" y="966" width="140" height="30" as="geometry" />
        </mxCell>
        <mxCell id="X2zy52RoQCxRByroR_HH-62" value="Gets a temporary signed URL to upload the photo to S3." style="text;html=1;strokeColor=none;fillColor=none;align=center;verticalAlign=middle;whiteSpace=wrap;rounded=0;fontFamily=calibri;fontStyle=1;fontSize=18;" vertex="1" parent="1">
          <mxGeometry x="960" y="566" width="420" height="30" as="geometry" />
        </mxCell>
        <mxCell id="X2zy52RoQCxRByroR_HH-64" value="Gets a temporary signed URL to upload the video to S3." style="text;html=1;strokeColor=none;fillColor=none;align=center;verticalAlign=middle;whiteSpace=wrap;rounded=0;fontFamily=calibri;fontStyle=1;fontSize=18;" vertex="1" parent="1">
          <mxGeometry x="1030" y="630" width="310" height="30" as="geometry" />
        </mxCell>
        <mxCell id="X2zy52RoQCxRByroR_HH-72" value="&lt;font style=&quot;font-size: 18px;&quot;&gt;API Gateway returns the result of one of the Lambda handlers.&lt;/font&gt;" style="text;html=1;strokeColor=none;fillColor=none;align=center;verticalAlign=middle;whiteSpace=wrap;rounded=0;fontFamily=calibri;fontStyle=1;fontSize=18;" vertex="1" parent="1">
          <mxGeometry x="310" y="636" width="140" height="30" as="geometry" />
        </mxCell>
        <mxCell id="Bb26P0zjuH-woblzr61o-14" value="CloudFront" style="sketch=0;points=[[0,0,0],[0.25,0,0],[0.5,0,0],[0.75,0,0],[1,0,0],[0,1,0],[0.25,1,0],[0.5,1,0],[0.75,1,0],[1,1,0],[0,0.25,0],[0,0.5,0],[0,0.75,0],[1,0.25,0],[1,0.5,0],[1,0.75,0]];outlineConnect=0;fontColor=#232F3E;gradientColor=#945DF2;gradientDirection=north;fillColor=#5A30B5;strokeColor=#ffffff;dashed=0;verticalLabelPosition=bottom;verticalAlign=top;align=center;html=1;fontSize=18;fontStyle=1;aspect=fixed;shape=mxgraph.aws4.resourceIcon;resIcon=mxgraph.aws4.cloudfront;fontFamily=calibri;" vertex="1" parent="1">
          <mxGeometry x="360" y="160" width="80" height="80" as="geometry" />
        </mxCell>
        <mxCell id="Aqjz69lnyfwYh1BhOs5R-3" value="Lambda@Edge&lt;br style=&quot;font-size: 18px;&quot;&gt;(verifyRequest)" style="sketch=0;points=[[0,0,0],[0.25,0,0],[0.5,0,0],[0.75,0,0],[1,0,0],[0,1,0],[0.25,1,0],[0.5,1,0],[0.75,1,0],[1,1,0],[0,0.25,0],[0,0.5,0],[0,0.75,0],[1,0.25,0],[1,0.5,0],[1,0.75,0]];outlineConnect=0;fontColor=#232F3E;gradientColor=#F78E04;gradientDirection=north;fillColor=#D05C17;strokeColor=#ffffff;dashed=0;verticalLabelPosition=bottom;verticalAlign=top;align=center;html=1;fontSize=18;fontStyle=1;aspect=fixed;shape=mxgraph.aws4.resourceIcon;resIcon=mxgraph.aws4.lambda;fontFamily=calibri;" vertex="1" parent="1">
          <mxGeometry x="720" y="60" width="80" height="80" as="geometry" />
        </mxCell>
        <mxCell id="Aqjz69lnyfwYh1BhOs5R-8" value="" style="edgeStyle=orthogonalEdgeStyle;html=1;endArrow=block;elbow=vertical;startArrow=none;endFill=1;strokeColor=#545B64;rounded=0;exitX=1;exitY=0.5;exitDx=0;exitDy=0;exitPerimeter=0;fontFamily=calibri;fontStyle=1;fontSize=18;entryX=0.75;entryY=0;entryDx=0;entryDy=0;entryPerimeter=0;" edge="1" parent="1" source="Aqjz69lnyfwYh1BhOs5R-3" target="Bb26P0zjuH-woblzr61o-3">
          <mxGeometry width="100" relative="1" as="geometry">
            <mxPoint x="820" y="220" as="sourcePoint" />
            <mxPoint x="1500" y="500" as="targetPoint" />
            <Array as="points">
              <mxPoint x="1580" y="100" />
            </Array>
          </mxGeometry>
        </mxCell>
        <mxCell id="Aqjz69lnyfwYh1BhOs5R-10" value="" style="edgeStyle=orthogonalEdgeStyle;html=1;endArrow=none;elbow=vertical;startArrow=block;startFill=1;strokeColor=#545B64;rounded=0;exitX=1;exitY=0.5;exitDx=0;exitDy=0;exitPerimeter=0;entryX=0.5;entryY=0;entryDx=0;entryDy=0;entryPerimeter=0;fontFamily=calibri;fontStyle=1;fontSize=18;" edge="1" parent="1" source="Bb26P0zjuH-woblzr61o-14" target="Bb26P0zjuH-woblzr61o-3">
          <mxGeometry width="100" relative="1" as="geometry">
            <mxPoint x="1040" y="170" as="sourcePoint" />
            <mxPoint x="1140" y="170" as="targetPoint" />
            <Array as="points">
              <mxPoint x="1560" y="200" />
            </Array>
          </mxGeometry>
        </mxCell>
        <mxCell id="Aqjz69lnyfwYh1BhOs5R-12" value="Authorizes requests for photos/videos based on JWT." style="text;html=1;strokeColor=none;fillColor=none;align=center;verticalAlign=middle;whiteSpace=wrap;rounded=0;fontFamily=calibri;fontStyle=1;fontSize=18;" vertex="1" parent="1">
          <mxGeometry x="495" y="40" width="165" height="30" as="geometry" />
        </mxCell>
        <mxCell id="Aqjz69lnyfwYh1BhOs5R-14" value="Forwards valid requests to the photo &amp;amp; video bucket." style="text;html=1;strokeColor=none;fillColor=none;align=center;verticalAlign=middle;whiteSpace=wrap;rounded=0;fontFamily=calibri;fontStyle=1;fontSize=18;" vertex="1" parent="1">
          <mxGeometry x="795" y="70" width="430" height="30" as="geometry" />
        </mxCell>
        <mxCell id="FtT5Jhbw3HZ-v1QbM0ez-2" value="Lambda (createThumbnailMobile)" style="sketch=0;points=[[0,0,0],[0.25,0,0],[0.5,0,0],[0.75,0,0],[1,0,0],[0,1,0],[0.25,1,0],[0.5,1,0],[0.75,1,0],[1,1,0],[0,0.25,0],[0,0.5,0],[0,0.75,0],[1,0.25,0],[1,0.5,0],[1,0.75,0]];outlineConnect=0;fontColor=#232F3E;gradientColor=#F78E04;gradientDirection=north;fillColor=#D05C17;strokeColor=#ffffff;dashed=0;verticalLabelPosition=bottom;verticalAlign=top;align=center;html=1;fontSize=18;fontStyle=1;aspect=fixed;shape=mxgraph.aws4.resourceIcon;resIcon=mxgraph.aws4.lambda;fontFamily=calibri;" vertex="1" parent="1">
          <mxGeometry x="2160" y="245" width="80" height="80" as="geometry" />
        </mxCell>
        <mxCell id="FtT5Jhbw3HZ-v1QbM0ez-3" value="SNS" style="sketch=0;points=[[0,0,0],[0.25,0,0],[0.5,0,0],[0.75,0,0],[1,0,0],[0,1,0],[0.25,1,0],[0.5,1,0],[0.75,1,0],[1,1,0],[0,0.25,0],[0,0.5,0],[0,0.75,0],[1,0.25,0],[1,0.5,0],[1,0.75,0]];outlineConnect=0;fontColor=#232F3E;gradientColor=#FF4F8B;gradientDirection=north;fillColor=#BC1356;strokeColor=#ffffff;dashed=0;verticalLabelPosition=bottom;verticalAlign=top;align=center;html=1;fontSize=18;fontStyle=1;aspect=fixed;shape=mxgraph.aws4.resourceIcon;resIcon=mxgraph.aws4.sns;fontFamily=calibri;" vertex="1" parent="1">
          <mxGeometry x="1840" y="245" width="80" height="80" as="geometry" />
        </mxCell>
        <mxCell id="FtT5Jhbw3HZ-v1QbM0ez-4" value="SQS" style="sketch=0;points=[[0,0,0],[0.25,0,0],[0.5,0,0],[0.75,0,0],[1,0,0],[0,1,0],[0.25,1,0],[0.5,1,0],[0.75,1,0],[1,1,0],[0,0.25,0],[0,0.5,0],[0,0.75,0],[1,0.25,0],[1,0.5,0],[1,0.75,0]];outlineConnect=0;fontColor=#232F3E;gradientColor=#FF4F8B;gradientDirection=north;fillColor=#BC1356;strokeColor=#ffffff;dashed=0;verticalLabelPosition=bottom;verticalAlign=top;align=center;html=1;fontSize=18;fontStyle=1;aspect=fixed;shape=mxgraph.aws4.resourceIcon;resIcon=mxgraph.aws4.sqs;fontFamily=calibri;" vertex="1" parent="1">
          <mxGeometry x="2000" y="245" width="80" height="80" as="geometry" />
        </mxCell>
        <mxCell id="FtT5Jhbw3HZ-v1QbM0ez-5" value="Rekognition" style="sketch=0;points=[[0,0,0],[0.25,0,0],[0.5,0,0],[0.75,0,0],[1,0,0],[0,1,0],[0.25,1,0],[0.5,1,0],[0.75,1,0],[1,1,0],[0,0.25,0],[0,0.5,0],[0,0.75,0],[1,0.25,0],[1,0.5,0],[1,0.75,0]];outlineConnect=0;fontColor=#232F3E;gradientColor=#4AB29A;gradientDirection=north;fillColor=#116D5B;strokeColor=#ffffff;dashed=0;verticalLabelPosition=bottom;verticalAlign=top;align=center;html=1;fontSize=18;fontStyle=1;aspect=fixed;shape=mxgraph.aws4.resourceIcon;resIcon=mxgraph.aws4.rekognition_2;fontFamily=calibri;" vertex="1" parent="1">
          <mxGeometry x="2360" y="125" width="80" height="80" as="geometry" />
        </mxCell>
        <mxCell id="FtT5Jhbw3HZ-v1QbM0ez-6" value="Lambda (identifyTags)" style="sketch=0;points=[[0,0,0],[0.25,0,0],[0.5,0,0],[0.75,0,0],[1,0,0],[0,1,0],[0.25,1,0],[0.5,1,0],[0.75,1,0],[1,1,0],[0,0.25,0],[0,0.5,0],[0,0.75,0],[1,0.25,0],[1,0.5,0],[1,0.75,0]];outlineConnect=0;fontColor=#232F3E;gradientColor=#F78E04;gradientDirection=north;fillColor=#D05C17;strokeColor=#ffffff;dashed=0;verticalLabelPosition=bottom;verticalAlign=top;align=center;html=1;fontSize=18;fontStyle=1;aspect=fixed;shape=mxgraph.aws4.resourceIcon;resIcon=mxgraph.aws4.lambda;fontFamily=calibri;" vertex="1" parent="1">
          <mxGeometry x="2160" y="125" width="80" height="80" as="geometry" />
        </mxCell>
        <mxCell id="FtT5Jhbw3HZ-v1QbM0ez-7" value="Lambda (createThumbnailDesktop)" style="sketch=0;points=[[0,0,0],[0.25,0,0],[0.5,0,0],[0.75,0,0],[1,0,0],[0,1,0],[0.25,1,0],[0.5,1,0],[0.75,1,0],[1,1,0],[0,0.25,0],[0,0.5,0],[0,0.75,0],[1,0.25,0],[1,0.5,0],[1,0.75,0]];outlineConnect=0;fontColor=#232F3E;gradientColor=#F78E04;gradientDirection=north;fillColor=#D05C17;strokeColor=#ffffff;dashed=0;verticalLabelPosition=bottom;verticalAlign=top;align=center;html=1;fontSize=18;fontStyle=1;aspect=fixed;shape=mxgraph.aws4.resourceIcon;resIcon=mxgraph.aws4.lambda;fontFamily=calibri;" vertex="1" parent="1">
          <mxGeometry x="2160" y="365" width="80" height="80" as="geometry" />
        </mxCell>
        <mxCell id="FtT5Jhbw3HZ-v1QbM0ez-8" value="" style="edgeStyle=orthogonalEdgeStyle;html=1;endArrow=block;elbow=vertical;startArrow=none;endFill=1;strokeColor=#545B64;rounded=0;exitX=1;exitY=0.5;exitDx=0;exitDy=0;exitPerimeter=0;entryX=0;entryY=0.5;entryDx=0;entryDy=0;entryPerimeter=0;fontFamily=calibri;fontStyle=1;fontSize=18;" edge="1" parent="1" source="FtT5Jhbw3HZ-v1QbM0ez-3" target="FtT5Jhbw3HZ-v1QbM0ez-4">
          <mxGeometry width="100" relative="1" as="geometry">
            <mxPoint x="2010" y="245" as="sourcePoint" />
            <mxPoint x="2110" y="245" as="targetPoint" />
          </mxGeometry>
        </mxCell>
        <mxCell id="FtT5Jhbw3HZ-v1QbM0ez-9" value="" style="edgeStyle=orthogonalEdgeStyle;html=1;endArrow=block;elbow=vertical;startArrow=none;endFill=1;strokeColor=#545B64;rounded=0;entryX=0;entryY=0.5;entryDx=0;entryDy=0;entryPerimeter=0;exitX=1;exitY=0.5;exitDx=0;exitDy=0;exitPerimeter=0;fontFamily=calibri;fontStyle=1;fontSize=18;" edge="1" parent="1" source="FtT5Jhbw3HZ-v1QbM0ez-13" target="FtT5Jhbw3HZ-v1QbM0ez-6">
          <mxGeometry width="100" relative="1" as="geometry">
            <mxPoint x="2010" y="245" as="sourcePoint" />
            <mxPoint x="2110" y="245" as="targetPoint" />
          </mxGeometry>
        </mxCell>
        <mxCell id="FtT5Jhbw3HZ-v1QbM0ez-10" value="" style="edgeStyle=orthogonalEdgeStyle;html=1;endArrow=block;elbow=vertical;startArrow=none;endFill=1;strokeColor=#545B64;rounded=0;entryX=0;entryY=0.5;entryDx=0;entryDy=0;entryPerimeter=0;exitX=1;exitY=0.5;exitDx=0;exitDy=0;exitPerimeter=0;fontFamily=calibri;fontStyle=1;fontSize=18;" edge="1" parent="1" source="FtT5Jhbw3HZ-v1QbM0ez-4" target="FtT5Jhbw3HZ-v1QbM0ez-2">
          <mxGeometry width="100" relative="1" as="geometry">
            <mxPoint x="2010" y="245" as="sourcePoint" />
            <mxPoint x="2110" y="245" as="targetPoint" />
          </mxGeometry>
        </mxCell>
        <mxCell id="FtT5Jhbw3HZ-v1QbM0ez-11" value="" style="edgeStyle=orthogonalEdgeStyle;html=1;endArrow=block;elbow=vertical;startArrow=none;endFill=1;strokeColor=#545B64;rounded=0;entryX=0;entryY=0.5;entryDx=0;entryDy=0;entryPerimeter=0;exitX=1;exitY=0.5;exitDx=0;exitDy=0;exitPerimeter=0;fontFamily=calibri;fontStyle=1;fontSize=18;" edge="1" parent="1" source="FtT5Jhbw3HZ-v1QbM0ez-14" target="FtT5Jhbw3HZ-v1QbM0ez-7">
          <mxGeometry width="100" relative="1" as="geometry">
            <mxPoint x="2010" y="245" as="sourcePoint" />
            <mxPoint x="2110" y="245" as="targetPoint" />
          </mxGeometry>
        </mxCell>
        <mxCell id="FtT5Jhbw3HZ-v1QbM0ez-12" value="" style="edgeStyle=orthogonalEdgeStyle;html=1;endArrow=block;elbow=vertical;startArrow=block;startFill=1;endFill=1;strokeColor=#545B64;rounded=0;entryX=0;entryY=0.5;entryDx=0;entryDy=0;entryPerimeter=0;exitX=1;exitY=0.5;exitDx=0;exitDy=0;exitPerimeter=0;fontFamily=calibri;fontStyle=1;fontSize=18;" edge="1" parent="1" source="FtT5Jhbw3HZ-v1QbM0ez-6" target="FtT5Jhbw3HZ-v1QbM0ez-5">
          <mxGeometry width="100" relative="1" as="geometry">
            <mxPoint x="2250" y="135" as="sourcePoint" />
            <mxPoint x="2350" y="135" as="targetPoint" />
          </mxGeometry>
        </mxCell>
        <mxCell id="FtT5Jhbw3HZ-v1QbM0ez-13" value="SQS" style="sketch=0;points=[[0,0,0],[0.25,0,0],[0.5,0,0],[0.75,0,0],[1,0,0],[0,1,0],[0.25,1,0],[0.5,1,0],[0.75,1,0],[1,1,0],[0,0.25,0],[0,0.5,0],[0,0.75,0],[1,0.25,0],[1,0.5,0],[1,0.75,0]];outlineConnect=0;fontColor=#232F3E;gradientColor=#FF4F8B;gradientDirection=north;fillColor=#BC1356;strokeColor=#ffffff;dashed=0;verticalLabelPosition=bottom;verticalAlign=top;align=center;html=1;fontSize=18;fontStyle=1;aspect=fixed;shape=mxgraph.aws4.resourceIcon;resIcon=mxgraph.aws4.sqs;fontFamily=calibri;" vertex="1" parent="1">
          <mxGeometry x="2000" y="125" width="80" height="80" as="geometry" />
        </mxCell>
        <mxCell id="FtT5Jhbw3HZ-v1QbM0ez-14" value="SQS" style="sketch=0;points=[[0,0,0],[0.25,0,0],[0.5,0,0],[0.75,0,0],[1,0,0],[0,1,0],[0.25,1,0],[0.5,1,0],[0.75,1,0],[1,1,0],[0,0.25,0],[0,0.5,0],[0,0.75,0],[1,0.25,0],[1,0.5,0],[1,0.75,0]];outlineConnect=0;fontColor=#232F3E;gradientColor=#FF4F8B;gradientDirection=north;fillColor=#BC1356;strokeColor=#ffffff;dashed=0;verticalLabelPosition=bottom;verticalAlign=top;align=center;html=1;fontSize=18;fontStyle=1;aspect=fixed;shape=mxgraph.aws4.resourceIcon;resIcon=mxgraph.aws4.sqs;fontFamily=calibri;" vertex="1" parent="1">
          <mxGeometry x="2000" y="365" width="80" height="80" as="geometry" />
        </mxCell>
        <mxCell id="FtT5Jhbw3HZ-v1QbM0ez-15" value="" style="edgeStyle=orthogonalEdgeStyle;html=1;endArrow=block;elbow=vertical;startArrow=none;endFill=1;strokeColor=#545B64;rounded=0;entryX=0;entryY=0.5;entryDx=0;entryDy=0;entryPerimeter=0;exitX=0.5;exitY=0;exitDx=0;exitDy=0;exitPerimeter=0;fontFamily=calibri;fontStyle=1;fontSize=18;" edge="1" parent="1" source="FtT5Jhbw3HZ-v1QbM0ez-3" target="FtT5Jhbw3HZ-v1QbM0ez-13">
          <mxGeometry width="100" relative="1" as="geometry">
            <mxPoint x="1990" y="275" as="sourcePoint" />
            <mxPoint x="2090" y="275" as="targetPoint" />
          </mxGeometry>
        </mxCell>
        <mxCell id="FtT5Jhbw3HZ-v1QbM0ez-16" value="" style="edgeStyle=orthogonalEdgeStyle;html=1;endArrow=block;elbow=vertical;startArrow=none;endFill=1;strokeColor=#545B64;rounded=0;entryX=0;entryY=0.5;entryDx=0;entryDy=0;entryPerimeter=0;exitX=0.5;exitY=1;exitDx=0;exitDy=0;exitPerimeter=0;fontFamily=calibri;fontStyle=1;fontSize=18;" edge="1" parent="1" source="FtT5Jhbw3HZ-v1QbM0ez-3" target="FtT5Jhbw3HZ-v1QbM0ez-14">
          <mxGeometry width="100" relative="1" as="geometry">
            <mxPoint x="1990" y="275" as="sourcePoint" />
            <mxPoint x="2090" y="275" as="targetPoint" />
          </mxGeometry>
        </mxCell>
        <mxCell id="FtT5Jhbw3HZ-v1QbM0ez-18" value="Rokognition identifies tags in the photo." style="text;html=1;strokeColor=none;fillColor=none;align=center;verticalAlign=middle;whiteSpace=wrap;rounded=0;fontFamily=calibri;fontStyle=1;fontSize=18;" vertex="1" parent="1">
          <mxGeometry x="2240" y="110" width="120" height="30" as="geometry" />
        </mxCell>
        <mxCell id="FtT5Jhbw3HZ-v1QbM0ez-21" value="Lambda (submitJob)" style="sketch=0;points=[[0,0,0],[0.25,0,0],[0.5,0,0],[0.75,0,0],[1,0,0],[0,1,0],[0.25,1,0],[0.5,1,0],[0.75,1,0],[1,1,0],[0,0.25,0],[0,0.5,0],[0,0.75,0],[1,0.25,0],[1,0.5,0],[1,0.75,0]];outlineConnect=0;fontColor=#232F3E;gradientColor=#F78E04;gradientDirection=north;fillColor=#D05C17;strokeColor=#ffffff;dashed=0;verticalLabelPosition=bottom;verticalAlign=top;align=center;html=1;fontSize=18;fontStyle=1;aspect=fixed;shape=mxgraph.aws4.resourceIcon;resIcon=mxgraph.aws4.lambda;fontFamily=calibri;" vertex="1" parent="1">
          <mxGeometry x="2160" y="756" width="80" height="80" as="geometry" />
        </mxCell>
        <mxCell id="FtT5Jhbw3HZ-v1QbM0ez-23" value="" style="edgeStyle=orthogonalEdgeStyle;html=1;endArrow=block;elbow=vertical;startArrow=none;endFill=1;strokeColor=#545B64;rounded=0;exitX=1;exitY=0.5;exitDx=0;exitDy=0;exitPerimeter=0;fontFamily=calibri;fontStyle=1;fontSize=18;" edge="1" parent="1" source="FtT5Jhbw3HZ-v1QbM0ez-21" target="FtT5Jhbw3HZ-v1QbM0ez-26">
          <mxGeometry width="100" relative="1" as="geometry">
            <mxPoint x="2360" y="701" as="sourcePoint" />
            <mxPoint x="2460" y="701" as="targetPoint" />
          </mxGeometry>
        </mxCell>
        <mxCell id="FtT5Jhbw3HZ-v1QbM0ez-25" value="Creates a job to encode the video." style="text;html=1;strokeColor=none;fillColor=none;align=center;verticalAlign=middle;whiteSpace=wrap;rounded=0;fontFamily=calibri;fontStyle=1;fontSize=18;" vertex="1" parent="1">
          <mxGeometry x="2240" y="746" width="130" height="30" as="geometry" />
        </mxCell>
        <mxCell id="FtT5Jhbw3HZ-v1QbM0ez-26" value="Elemental&lt;br&gt;MediaConvert" style="sketch=0;points=[[0,0,0],[0.25,0,0],[0.5,0,0],[0.75,0,0],[1,0,0],[0,1,0],[0.25,1,0],[0.5,1,0],[0.75,1,0],[1,1,0],[0,0.25,0],[0,0.5,0],[0,0.75,0],[1,0.25,0],[1,0.5,0],[1,0.75,0]];outlineConnect=0;fontColor=#232F3E;gradientColor=#F78E04;gradientDirection=north;fillColor=#D05C17;strokeColor=#ffffff;dashed=0;verticalLabelPosition=bottom;verticalAlign=top;align=center;html=1;fontSize=18;fontStyle=1;aspect=fixed;shape=mxgraph.aws4.resourceIcon;resIcon=mxgraph.aws4.elemental_mediaconvert;fontFamily=calibri;" vertex="1" parent="1">
          <mxGeometry x="2360" y="756" width="80" height="80" as="geometry" />
        </mxCell>
        <mxCell id="FtT5Jhbw3HZ-v1QbM0ez-28" value="SQS" style="sketch=0;points=[[0,0,0],[0.25,0,0],[0.5,0,0],[0.75,0,0],[1,0,0],[0,1,0],[0.25,1,0],[0.5,1,0],[0.75,1,0],[1,1,0],[0,0.25,0],[0,0.5,0],[0,0.75,0],[1,0.25,0],[1,0.5,0],[1,0.75,0]];outlineConnect=0;fontColor=#232F3E;gradientColor=#FF4F8B;gradientDirection=north;fillColor=#BC1356;strokeColor=#ffffff;dashed=0;verticalLabelPosition=bottom;verticalAlign=top;align=center;html=1;fontSize=18;fontStyle=1;aspect=fixed;shape=mxgraph.aws4.resourceIcon;resIcon=mxgraph.aws4.sqs;fontFamily=calibri;" vertex="1" parent="1">
          <mxGeometry x="2000" y="756" width="80" height="80" as="geometry" />
        </mxCell>
        <mxCell id="FtT5Jhbw3HZ-v1QbM0ez-29" value="" style="edgeStyle=orthogonalEdgeStyle;html=1;endArrow=block;elbow=vertical;startArrow=none;endFill=1;strokeColor=#545B64;rounded=0;exitX=1;exitY=0.5;exitDx=0;exitDy=0;exitPerimeter=0;entryX=0;entryY=0.5;entryDx=0;entryDy=0;entryPerimeter=0;fontFamily=calibri;fontStyle=1;fontSize=18;" edge="1" parent="1" source="FtT5Jhbw3HZ-v1QbM0ez-28" target="FtT5Jhbw3HZ-v1QbM0ez-21">
          <mxGeometry width="100" relative="1" as="geometry">
            <mxPoint x="2180" y="731" as="sourcePoint" />
            <mxPoint x="2280" y="731" as="targetPoint" />
          </mxGeometry>
        </mxCell>
        <mxCell id="FtT5Jhbw3HZ-v1QbM0ez-31" value="SNS" style="sketch=0;points=[[0,0,0],[0.25,0,0],[0.5,0,0],[0.75,0,0],[1,0,0],[0,1,0],[0.25,1,0],[0.5,1,0],[0.75,1,0],[1,1,0],[0,0.25,0],[0,0.5,0],[0,0.75,0],[1,0.25,0],[1,0.5,0],[1,0.75,0]];outlineConnect=0;fontColor=#232F3E;gradientColor=#FF4F8B;gradientDirection=north;fillColor=#BC1356;strokeColor=#ffffff;dashed=0;verticalLabelPosition=bottom;verticalAlign=top;align=center;html=1;fontSize=18;fontStyle=1;aspect=fixed;shape=mxgraph.aws4.resourceIcon;resIcon=mxgraph.aws4.sns;fontFamily=calibri;" vertex="1" parent="1">
          <mxGeometry x="1840" y="756" width="80" height="80" as="geometry" />
        </mxCell>
        <mxCell id="FtT5Jhbw3HZ-v1QbM0ez-32" value="" style="edgeStyle=orthogonalEdgeStyle;html=1;endArrow=block;elbow=vertical;startArrow=none;endFill=1;strokeColor=#545B64;rounded=0;entryX=0;entryY=0.495;entryDx=0;entryDy=0;entryPerimeter=0;exitX=1;exitY=0.5;exitDx=0;exitDy=0;exitPerimeter=0;" edge="1" parent="1" source="FtT5Jhbw3HZ-v1QbM0ez-31" target="FtT5Jhbw3HZ-v1QbM0ez-28">
          <mxGeometry width="100" relative="1" as="geometry">
            <mxPoint x="1930" y="795.58" as="sourcePoint" />
            <mxPoint x="2030" y="795.58" as="targetPoint" />
          </mxGeometry>
        </mxCell>
        <mxCell id="FtT5Jhbw3HZ-v1QbM0ez-39" value="" style="edgeStyle=orthogonalEdgeStyle;html=1;endArrow=block;elbow=vertical;startArrow=block;startFill=1;endFill=1;strokeColor=#545B64;rounded=0;exitX=0.25;exitY=1;exitDx=0;exitDy=0;exitPerimeter=0;entryX=0.25;entryY=0;entryDx=0;entryDy=0;entryPerimeter=0;" edge="1" parent="1" source="Bb26P0zjuH-woblzr61o-4" target="Bb26P0zjuH-woblzr61o-14">
          <mxGeometry width="100" relative="1" as="geometry">
            <mxPoint x="450" y="50" as="sourcePoint" />
            <mxPoint x="550" y="50" as="targetPoint" />
          </mxGeometry>
        </mxCell>
        <mxCell id="FtT5Jhbw3HZ-v1QbM0ez-40" value="" style="edgeStyle=orthogonalEdgeStyle;html=1;endArrow=block;elbow=vertical;startArrow=block;startFill=1;endFill=1;strokeColor=#545B64;rounded=0;entryX=0;entryY=0.5;entryDx=0;entryDy=0;entryPerimeter=0;exitX=0.75;exitY=0;exitDx=0;exitDy=0;exitPerimeter=0;" edge="1" parent="1" source="Bb26P0zjuH-woblzr61o-14" target="Aqjz69lnyfwYh1BhOs5R-3">
          <mxGeometry width="100" relative="1" as="geometry">
            <mxPoint x="510" y="40" as="sourcePoint" />
            <mxPoint x="610" y="40" as="targetPoint" />
          </mxGeometry>
        </mxCell>
        <mxCell id="FtT5Jhbw3HZ-v1QbM0ez-44" value="" style="edgeStyle=orthogonalEdgeStyle;html=1;endArrow=block;elbow=vertical;startArrow=none;endFill=1;strokeColor=#545B64;rounded=0;entryX=0;entryY=0.5;entryDx=0;entryDy=0;entryPerimeter=0;exitX=1;exitY=0.25;exitDx=0;exitDy=0;exitPerimeter=0;" edge="1" parent="1" source="Bb26P0zjuH-woblzr61o-3" target="FtT5Jhbw3HZ-v1QbM0ez-3">
          <mxGeometry width="100" relative="1" as="geometry">
            <mxPoint x="1920" y="450" as="sourcePoint" />
            <mxPoint x="2020" y="450" as="targetPoint" />
            <Array as="points">
              <mxPoint x="1740" y="576" />
              <mxPoint x="1740" y="285" />
            </Array>
          </mxGeometry>
        </mxCell>
        <mxCell id="FtT5Jhbw3HZ-v1QbM0ez-45" value="" style="edgeStyle=orthogonalEdgeStyle;html=1;endArrow=block;elbow=vertical;startArrow=none;endFill=1;strokeColor=#545B64;rounded=0;exitX=0.5;exitY=1;exitDx=0;exitDy=0;exitPerimeter=0;entryX=0;entryY=0.5;entryDx=0;entryDy=0;entryPerimeter=0;" edge="1" parent="1" source="Bb26P0zjuH-woblzr61o-3" target="FtT5Jhbw3HZ-v1QbM0ez-31">
          <mxGeometry width="100" relative="1" as="geometry">
            <mxPoint x="1910" y="600" as="sourcePoint" />
            <mxPoint x="2000" y="600" as="targetPoint" />
            <Array as="points">
              <mxPoint x="1560" y="720" />
              <mxPoint x="1740" y="720" />
              <mxPoint x="1740" y="796" />
            </Array>
          </mxGeometry>
        </mxCell>
        <mxCell id="FtT5Jhbw3HZ-v1QbM0ez-46" value="" style="edgeStyle=orthogonalEdgeStyle;html=1;endArrow=none;elbow=vertical;startArrow=block;startFill=1;strokeColor=#545B64;rounded=0;entryX=0.5;entryY=0;entryDx=0;entryDy=0;entryPerimeter=0;exitX=1;exitY=0.75;exitDx=0;exitDy=0;exitPerimeter=0;" edge="1" parent="1" source="Bb26P0zjuH-woblzr61o-3" target="FtT5Jhbw3HZ-v1QbM0ez-26">
          <mxGeometry width="100" relative="1" as="geometry">
            <mxPoint x="2330" y="630" as="sourcePoint" />
            <mxPoint x="2430" y="630" as="targetPoint" />
          </mxGeometry>
        </mxCell>
        <mxCell id="FtT5Jhbw3HZ-v1QbM0ez-47" value="" style="edgeStyle=orthogonalEdgeStyle;html=1;endArrow=block;elbow=vertical;startArrow=none;endFill=1;strokeColor=#545B64;rounded=0;entryX=1;entryY=0.5;entryDx=0;entryDy=0;entryPerimeter=0;exitX=1;exitY=0.5;exitDx=0;exitDy=0;exitPerimeter=0;" edge="1" parent="1" source="FtT5Jhbw3HZ-v1QbM0ez-7" target="Bb26P0zjuH-woblzr61o-3">
          <mxGeometry width="100" relative="1" as="geometry">
            <mxPoint x="2160" y="490" as="sourcePoint" />
            <mxPoint x="2260" y="490" as="targetPoint" />
            <Array as="points">
              <mxPoint x="2400" y="405" />
              <mxPoint x="2400" y="596" />
            </Array>
          </mxGeometry>
        </mxCell>
        <mxCell id="FtT5Jhbw3HZ-v1QbM0ez-48" value="" style="edgeStyle=orthogonalEdgeStyle;html=1;endArrow=none;elbow=vertical;startArrow=none;endFill=0;strokeColor=#545B64;rounded=0;exitX=1;exitY=0.5;exitDx=0;exitDy=0;exitPerimeter=0;" edge="1" parent="1" source="FtT5Jhbw3HZ-v1QbM0ez-2">
          <mxGeometry width="100" relative="1" as="geometry">
            <mxPoint x="2300" y="420" as="sourcePoint" />
            <mxPoint x="2400" y="410" as="targetPoint" />
          </mxGeometry>
        </mxCell>
        <mxCell id="FtT5Jhbw3HZ-v1QbM0ez-49" value="Photos and videos are returned by S3." style="text;html=1;strokeColor=none;fillColor=none;align=center;verticalAlign=middle;whiteSpace=wrap;rounded=0;fontFamily=calibri;fontStyle=1;fontSize=18;" vertex="1" parent="1">
          <mxGeometry x="890" y="170" width="430" height="30" as="geometry" />
        </mxCell>
        <mxCell id="FtT5Jhbw3HZ-v1QbM0ez-51" value="Route 53 routes API requests to API Gateway." style="text;html=1;strokeColor=none;fillColor=none;align=center;verticalAlign=middle;whiteSpace=wrap;rounded=0;fontFamily=calibri;fontStyle=1;fontSize=18;" vertex="1" parent="1">
          <mxGeometry x="297.5" y="540" width="165" height="30" as="geometry" />
        </mxCell>
        <mxCell id="FtT5Jhbw3HZ-v1QbM0ez-52" value="Notifies SNS when the source photo is uploaded." style="text;html=1;strokeColor=none;fillColor=none;align=center;verticalAlign=middle;whiteSpace=wrap;rounded=0;fontFamily=calibri;fontStyle=1;fontSize=18;" vertex="1" parent="1">
          <mxGeometry x="1685" y="240" width="155" height="30" as="geometry" />
        </mxCell>
        <mxCell id="FtT5Jhbw3HZ-v1QbM0ez-53" value="Notifies SNS when the source video is uploaded." style="text;html=1;strokeColor=none;fillColor=none;align=center;verticalAlign=middle;whiteSpace=wrap;rounded=0;fontFamily=calibri;fontStyle=1;fontSize=18;" vertex="1" parent="1">
          <mxGeometry x="1685" y="821" width="155" height="30" as="geometry" />
        </mxCell>
        <mxCell id="FtT5Jhbw3HZ-v1QbM0ez-54" value="Processed media is saved into S3" style="text;html=1;strokeColor=none;fillColor=none;align=center;verticalAlign=middle;whiteSpace=wrap;rounded=0;fontFamily=calibri;fontStyle=1;fontSize=18;" vertex="1" parent="1">
          <mxGeometry x="1920" y="566" width="305" height="30" as="geometry" />
        </mxCell>
      </root>
    </mxGraphModel>
  </diagram>
</mxfile>
